<svg xmlns="http://www.w3.org/2000/svg" xmlns:xlink="http://www.w3.org/1999/xlink" width="500" zoomAndPan="magnify" viewBox="0 0 375 374.999991" height="500" preserveAspectRatio="xMidYMid meet" version="1.0"><defs><g/><clipPath id="f68e7dbe0c"><path d="M 99 130.273438 L 185.96875 130.273438 L 185.96875 227.773438 L 99 227.773438 Z M 99 130.273438 " clip-rule="nonzero"/></clipPath><clipPath id="d4e1834754"><path d="M 133.609375 155.355469 L 306.84375 155.355469 L 306.84375 292.234375 L 133.609375 292.234375 Z M 133.609375 155.355469 " clip-rule="nonzero"/></clipPath><clipPath id="ba77d9adc8"><path d="M 157.535156 155.355469 L 306.589844 155.355469 L 282.664062 292.234375 L 133.609375 292.234375 Z M 157.535156 155.355469 " clip-rule="nonzero"/></clipPath></defs><rect x="-37.5" width="450" fill="#ffffff" y="-37.499999" height="449.999989" fill-opacity="1"/><rect x="-37.5" width="450" fill="#d9d9d9" y="-37.499999" height="449.999989" fill-opacity="1"/><g clip-path="url(#f68e7dbe0c)"><path fill="#001523" d="M 172.582031 152.636719 L 172.554688 152.613281 C 172.53125 152.484375 172.480469 152.355469 172.429688 152.230469 C 172.378906 152.101562 172.328125 151.972656 172.25 151.871094 C 172.199219 151.769531 172.121094 151.695312 172.019531 151.59375 C 171.945312 151.492188 171.84375 151.390625 171.714844 151.285156 C 171.636719 151.234375 171.535156 151.183594 171.433594 151.132812 C 171.28125 151.058594 171.128906 150.980469 170.976562 150.957031 C 170.925781 150.929688 170.875 150.90625 170.824219 150.878906 C 170.773438 150.878906 170.695312 150.90625 170.644531 150.878906 C 170.570312 150.878906 170.519531 150.855469 170.441406 150.855469 L 155.949219 150.855469 L 155.949219 143.976562 C 155.949219 136.488281 149.835938 130.375 142.34375 130.375 C 134.832031 130.375 128.742188 136.488281 128.742188 143.976562 L 128.742188 150.855469 L 114.222656 150.855469 C 113.179688 150.855469 112.261719 151.617188 112.085938 152.636719 L 109.792969 165.78125 L 114.199219 165.78125 L 116.03125 155.183594 L 128.742188 155.183594 L 128.742188 159.539062 C 128.742188 160.738281 129.710938 161.703125 130.910156 161.703125 C 132.105469 161.703125 133.074219 160.738281 133.074219 159.539062 L 133.074219 153.070312 C 133.074219 153.042969 133.074219 153.042969 133.074219 153.019531 C 133.074219 152.992188 133.074219 152.992188 133.074219 152.96875 L 133.074219 143.976562 C 133.074219 138.882812 137.226562 134.703125 142.34375 134.703125 C 147.441406 134.703125 151.617188 138.882812 151.617188 143.976562 L 151.617188 150.855469 L 140.105469 150.855469 C 138.90625 150.855469 137.9375 151.820312 137.9375 153.019531 C 137.9375 154.214844 138.90625 155.183594 140.105469 155.183594 L 153.757812 155.183594 C 153.78125 155.183594 153.78125 155.183594 153.78125 155.183594 L 167.867188 155.183594 L 155.921875 223.628906 L 104.113281 223.628906 L 105.972656 213.03125 L 101.5625 213.03125 L 99.398438 225.410156 C 99.296875 226.046875 99.476562 226.683594 99.882812 227.195312 C 100.289062 227.679688 100.902344 227.957031 101.539062 227.957031 L 183.125 227.957031 C 183.761719 227.957031 184.375 227.679688 184.78125 227.195312 C 185.191406 226.683594 185.367188 226.046875 185.265625 225.410156 Z M 160.328125 223.652344 L 170.441406 165.652344 L 180.554688 223.652344 Z M 160.328125 223.652344 " fill-opacity="1" fill-rule="nonzero"/></g><path fill="#fe9e65" d="M 118.785156 208.726562 L 94.382812 208.726562 C 93.183594 208.726562 92.214844 209.695312 92.214844 210.890625 C 92.214844 212.089844 93.183594 213.058594 94.382812 213.058594 L 118.785156 213.058594 C 119.980469 213.058594 120.949219 212.089844 120.949219 210.890625 C 120.949219 209.695312 119.980469 208.726562 118.785156 208.726562 Z M 118.785156 208.726562 " fill-opacity="1" fill-rule="nonzero"/><path fill="#fe9e65" d="M 126.78125 165.804688 L 103.015625 165.804688 C 101.820312 165.804688 100.851562 166.773438 100.851562 167.972656 C 100.851562 169.167969 101.820312 170.136719 103.015625 170.136719 L 126.78125 170.136719 C 127.980469 170.136719 128.945312 169.167969 128.945312 167.972656 C 128.945312 166.773438 127.980469 165.804688 126.78125 165.804688 Z M 126.78125 165.804688 " fill-opacity="1" fill-rule="nonzero"/><path fill="#fe9e65" d="M 94.382812 180.859375 L 122.144531 180.859375 C 123.34375 180.859375 124.3125 179.890625 124.3125 178.695312 C 124.3125 177.496094 123.34375 176.53125 122.144531 176.53125 L 94.382812 176.53125 C 93.183594 176.53125 92.214844 177.496094 92.214844 178.695312 C 92.214844 179.890625 93.183594 180.859375 94.382812 180.859375 Z M 94.382812 180.859375 " fill-opacity="1" fill-rule="nonzero"/><path fill="#fe9e65" d="M 120.949219 189.417969 C 120.949219 188.222656 119.980469 187.253906 118.785156 187.253906 L 84.089844 187.253906 C 82.894531 187.253906 81.925781 188.222656 81.925781 189.417969 C 81.925781 190.617188 82.894531 191.582031 84.089844 191.582031 L 118.785156 191.582031 C 119.980469 191.582031 120.949219 190.617188 120.949219 189.417969 Z M 120.949219 189.417969 " fill-opacity="1" fill-rule="nonzero"/><path fill="#fe9e65" d="M 124.949219 197.976562 L 98.304688 197.976562 C 97.105469 197.976562 96.140625 198.945312 96.140625 200.140625 C 96.140625 201.339844 97.105469 202.308594 98.304688 202.308594 L 124.949219 202.308594 C 126.144531 202.308594 127.113281 201.339844 127.113281 200.140625 C 127.113281 198.945312 126.144531 197.976562 124.949219 197.976562 Z M 124.949219 197.976562 " fill-opacity="1" fill-rule="nonzero"/><g clip-path="url(#d4e1834754)"><g clip-path="url(#ba77d9adc8)"><path fill="#ffffff" d="M 133.609375 155.355469 L 306.84375 155.355469 L 306.84375 292.234375 L 133.609375 292.234375 Z M 133.609375 155.355469 " fill-opacity="1" fill-rule="nonzero"/></g></g><g fill="#fe9e65" fill-opacity="1"><g transform="translate(156.587675, 226.90834)"><g><path d="M 15.484375 -26.8125 C 17.347656 -26.8125 19.003906 -26.472656 20.453125 -25.796875 C 21.910156 -25.117188 23.054688 -24.160156 23.890625 -22.921875 C 24.722656 -21.691406 25.140625 -20.242188 25.140625 -18.578125 C 25.140625 -16.890625 24.707031 -15.304688 23.84375 -13.828125 C 22.988281 -12.347656 21.710938 -11.144531 20.015625 -10.21875 C 18.316406 -9.300781 16.269531 -8.84375 13.875 -8.84375 L 9.65625 -8.84375 L 7.96875 0 L 1.21875 0 L 6.359375 -26.8125 Z M 13.984375 -14.5625 C 15.390625 -14.5625 16.457031 -14.90625 17.1875 -15.59375 C 17.914062 -16.28125 18.28125 -17.132812 18.28125 -18.15625 C 18.28125 -19.082031 17.945312 -19.804688 17.28125 -20.328125 C 16.613281 -20.847656 15.742188 -21.109375 14.671875 -21.109375 L 12.03125 -21.109375 L 10.765625 -14.5625 Z M 13.984375 -14.5625 "/></g></g></g><g fill="#fe9e65" fill-opacity="1"><g transform="translate(180.300252, 226.90834)"><g><path d="M 17.9375 0 L 1.21875 0 L 6.359375 -26.8125 L 13.0625 -26.8125 L 9.125 -6.046875 L 19.125 -6.046875 Z M 17.9375 0 "/></g></g></g><g fill="#fe9e65" fill-opacity="1"><g transform="translate(199.722268, 226.90834)"><g><path d="M 13.21875 0.5 C 11.125 0.5 9.285156 0.109375 7.703125 -0.671875 C 6.117188 -1.453125 4.898438 -2.5625 4.046875 -4 C 3.191406 -5.445312 2.765625 -7.128906 2.765625 -9.046875 C 2.765625 -9.960938 2.851562 -10.867188 3.03125 -11.765625 L 5.9375 -26.8125 L 12.640625 -26.8125 L 9.609375 -11.296875 C 9.515625 -10.867188 9.46875 -10.398438 9.46875 -9.890625 C 9.46875 -8.585938 9.84375 -7.550781 10.59375 -6.78125 C 11.34375 -6.007812 12.367188 -5.625 13.671875 -5.625 C 14.972656 -5.625 16.082031 -6.039062 17 -6.875 C 17.925781 -7.707031 18.539062 -8.898438 18.84375 -10.453125 L 22.03125 -26.8125 L 28.734375 -26.8125 L 25.328125 -9.3125 C 24.765625 -6.34375 23.421875 -3.960938 21.296875 -2.171875 C 19.179688 -0.390625 16.488281 0.5 13.21875 0.5 Z M 13.21875 0.5 "/></g></g></g><g fill="#fe9e65" fill-opacity="1"><g transform="translate(226.691076, 226.90834)"><g><path d="M 11.421875 0.5 C 8.429688 0.5 5.972656 -0.265625 4.046875 -1.796875 C 2.117188 -3.328125 1.15625 -5.65625 1.15625 -8.78125 L 7.78125 -8.78125 C 7.78125 -7.46875 8.132812 -6.492188 8.84375 -5.859375 C 9.5625 -5.222656 10.492188 -4.90625 11.640625 -4.90625 C 12.816406 -4.90625 13.703125 -5.144531 14.296875 -5.625 C 14.898438 -6.113281 15.203125 -6.765625 15.203125 -7.578125 C 15.203125 -8.328125 14.867188 -8.9375 14.203125 -9.40625 C 13.546875 -9.875 12.488281 -10.429688 11.03125 -11.078125 C 9.570312 -11.679688 8.363281 -12.273438 7.40625 -12.859375 C 6.457031 -13.453125 5.644531 -14.238281 4.96875 -15.21875 C 4.289062 -16.207031 3.953125 -17.441406 3.953125 -18.921875 C 3.953125 -20.378906 4.320312 -21.742188 5.0625 -23.015625 C 5.800781 -24.296875 6.929688 -25.332031 8.453125 -26.125 C 9.972656 -26.914062 11.851562 -27.3125 14.09375 -27.3125 C 17.007812 -27.3125 19.316406 -26.546875 21.015625 -25.015625 C 22.710938 -23.484375 23.5625 -21.335938 23.5625 -18.578125 L 17.046875 -18.578125 C 17.046875 -19.628906 16.757812 -20.445312 16.1875 -21.03125 C 15.613281 -21.625 14.828125 -21.921875 13.828125 -21.921875 C 12.785156 -21.921875 11.988281 -21.675781 11.4375 -21.1875 C 10.882812 -20.695312 10.609375 -20.082031 10.609375 -19.34375 C 10.609375 -18.582031 10.945312 -17.957031 11.625 -17.46875 C 12.300781 -16.988281 13.378906 -16.425781 14.859375 -15.78125 C 16.316406 -15.144531 17.507812 -14.550781 18.4375 -14 C 19.375 -13.445312 20.179688 -12.6875 20.859375 -11.71875 C 21.535156 -10.75 21.875 -9.535156 21.875 -8.078125 C 21.875 -6.597656 21.503906 -5.207031 20.765625 -3.90625 C 20.023438 -2.601562 18.867188 -1.539062 17.296875 -0.71875 C 15.722656 0.09375 13.765625 0.5 11.421875 0.5 Z M 11.421875 0.5 "/></g></g></g><g fill="#001523" fill-opacity="1"><g transform="translate(156.587675, 191.748196)"><g><path d="M 10.703125 0.46875 C 7.898438 0.46875 5.59375 -0.25 3.78125 -1.6875 C 1.976562 -3.125 1.078125 -5.300781 1.078125 -8.21875 L 7.28125 -8.21875 C 7.28125 -7 7.613281 -6.085938 8.28125 -5.484375 C 8.957031 -4.890625 9.832031 -4.59375 10.90625 -4.59375 C 12.007812 -4.59375 12.84375 -4.816406 13.40625 -5.265625 C 13.96875 -5.722656 14.25 -6.335938 14.25 -7.109375 C 14.25 -7.796875 13.9375 -8.359375 13.3125 -8.796875 C 12.6875 -9.242188 11.695312 -9.769531 10.34375 -10.375 C 8.976562 -10.945312 7.84375 -11.507812 6.9375 -12.0625 C 6.039062 -12.613281 5.273438 -13.347656 4.640625 -14.265625 C 4.015625 -15.179688 3.703125 -16.335938 3.703125 -17.734375 C 3.703125 -19.097656 4.046875 -20.375 4.734375 -21.5625 C 5.429688 -22.757812 6.488281 -23.726562 7.90625 -24.46875 C 9.332031 -25.21875 11.097656 -25.59375 13.203125 -25.59375 C 15.929688 -25.59375 18.09375 -24.875 19.6875 -23.4375 C 21.28125 -22 22.078125 -19.988281 22.078125 -17.40625 L 15.96875 -17.40625 C 15.96875 -18.382812 15.695312 -19.148438 15.15625 -19.703125 C 14.625 -20.253906 13.890625 -20.53125 12.953125 -20.53125 C 11.972656 -20.53125 11.222656 -20.300781 10.703125 -19.84375 C 10.191406 -19.394531 9.9375 -18.820312 9.9375 -18.125 C 9.9375 -17.40625 10.253906 -16.816406 10.890625 -16.359375 C 11.523438 -15.910156 12.535156 -15.382812 13.921875 -14.78125 C 15.285156 -14.1875 16.40625 -13.628906 17.28125 -13.109375 C 18.15625 -12.597656 18.910156 -11.890625 19.546875 -10.984375 C 20.179688 -10.078125 20.5 -8.941406 20.5 -7.578125 C 20.5 -6.179688 20.148438 -4.875 19.453125 -3.65625 C 18.753906 -2.4375 17.671875 -1.441406 16.203125 -0.671875 C 14.734375 0.0859375 12.898438 0.46875 10.703125 0.46875 Z M 10.703125 0.46875 "/></g></g></g><g fill="#001523" fill-opacity="1"><g transform="translate(177.794143, 191.748196)"><g><path d="M 14.5 0.46875 C 12.175781 0.46875 10.0625 -0.0195312 8.15625 -1 C 6.257812 -1.976562 4.757812 -3.363281 3.65625 -5.15625 C 2.5625 -6.957031 2.015625 -9.019531 2.015625 -11.34375 C 2.015625 -13.832031 2.644531 -16.171875 3.90625 -18.359375 C 5.175781 -20.546875 6.921875 -22.296875 9.140625 -23.609375 C 11.367188 -24.929688 13.875 -25.59375 16.65625 -25.59375 C 19 -25.59375 21.117188 -25.097656 23.015625 -24.109375 C 24.921875 -23.128906 26.421875 -21.742188 27.515625 -19.953125 C 28.617188 -18.160156 29.171875 -16.101562 29.171875 -13.78125 C 29.171875 -11.289062 28.535156 -8.953125 27.265625 -6.765625 C 26.003906 -4.578125 24.253906 -2.820312 22.015625 -1.5 C 19.773438 -0.1875 17.269531 0.46875 14.5 0.46875 Z M 14.828125 -5.28125 C 16.359375 -5.28125 17.726562 -5.660156 18.9375 -6.421875 C 20.144531 -7.191406 21.082031 -8.207031 21.75 -9.46875 C 22.414062 -10.738281 22.75 -12.066406 22.75 -13.453125 C 22.75 -14.648438 22.5 -15.734375 22 -16.703125 C 21.5 -17.671875 20.765625 -18.4375 19.796875 -19 C 18.828125 -19.5625 17.679688 -19.84375 16.359375 -19.84375 C 14.828125 -19.84375 13.457031 -19.457031 12.25 -18.6875 C 11.039062 -17.925781 10.101562 -16.914062 9.4375 -15.65625 C 8.769531 -14.40625 8.4375 -13.078125 8.4375 -11.671875 C 8.4375 -10.472656 8.6875 -9.390625 9.1875 -8.421875 C 9.6875 -7.453125 10.421875 -6.6875 11.390625 -6.125 C 12.359375 -5.5625 13.503906 -5.28125 14.828125 -5.28125 Z M 14.828125 -5.28125 "/></g></g></g><g fill="#001523" fill-opacity="1"><g transform="translate(206.607755, 191.748196)"><g><path d="M 12.375 0.46875 C 10.414062 0.46875 8.691406 0.101562 7.203125 -0.625 C 5.722656 -1.351562 4.582031 -2.394531 3.78125 -3.75 C 2.976562 -5.101562 2.578125 -6.675781 2.578125 -8.46875 C 2.578125 -9.332031 2.660156 -10.179688 2.828125 -11.015625 L 5.5625 -25.125 L 11.84375 -25.125 L 9.015625 -10.59375 C 8.910156 -10.1875 8.859375 -9.742188 8.859375 -9.265625 C 8.859375 -8.035156 9.210938 -7.0625 9.921875 -6.34375 C 10.628906 -5.632812 11.59375 -5.28125 12.8125 -5.28125 C 14.03125 -5.28125 15.070312 -5.664062 15.9375 -6.4375 C 16.800781 -7.21875 17.375 -8.335938 17.65625 -9.796875 L 20.640625 -25.125 L 26.921875 -25.125 L 23.71875 -8.71875 C 23.195312 -5.945312 21.941406 -3.722656 19.953125 -2.046875 C 17.960938 -0.367188 15.4375 0.46875 12.375 0.46875 Z M 12.375 0.46875 "/></g></g></g><g fill="#001523" fill-opacity="1"><g transform="translate(231.868979, 191.748196)"><g><path d="M 20.09375 -25.125 L 27.890625 -25.125 L 15.828125 -12.5625 L 23.078125 0 L 15.75 0 L 9.546875 -11.125 L 7.421875 0 L 1.15625 0 L 5.953125 -25.125 L 12.234375 -25.125 L 10.1875 -14.390625 Z M 20.09375 -25.125 "/></g></g></g></svg>